<?xml version="1.0" encoding="iso-8859-1"?>
<!-- Generator: Adobe Illustrator 19.0.0, SVG Export Plug-In . SVG Version: 6.00 Build 0)  -->
<svg version="1.1" id="Layer_1" xmlns="http://www.w3.org/2000/svg" xmlns:xlink="http://www.w3.org/1999/xlink" x="0px" y="0px"
	 viewBox="0 0 512.108 512.108" style="enable-background:new 0 0 512.108 512.108;" xml:space="preserve">
<g transform="translate(-1)">
	<path style="fill:#DEDEE1;" d="M12.937,280.484c0,0-22.449,14.292-4.078,36.749c0,0-37.941,44.341,52.904,53.53
		c0,0,28.584-24.497,40.828,8.166c0,0,56.311-7.601,94.076-24.956c0,0,30.623-11.229,40.828,0
		c10.214,11.229,72.925,45.162,85.937,8.245c0,0,18.238-6.012,24.497,12.253c0,0,35.31,15.943,48.799-12.332l12.244-4.078
		c0,0,31.258,25.044,44.526-7.618l12.253-8.165l8.554-0.556c0,0,59.639-25.565,31.047-77.621c0,0-12.235,22.449-20.409,28.575
		c0,0-73.242,83.421-276.03,12.306c0,0-40.819-16.419-130.639-5.535C78.27,299.446,55.981,301.114,12.937,280.484"/>
	<path style="fill:#285680;" d="M425.3,239.656c0,0-61.926,4.423-69.402-24.497c0,0-10.893-5.102-12.253,4.078l-0.547-0.406
		l-86.069,99.672l-0.565-0.115c-0.062,0.344-0.177,0.662-0.247,0.998c166.912,43.423,228.723-26.712,228.723-26.712
		c8.174-6.126,20.409-28.575,20.409-28.575v-4.087C505.348,260.013,503.892,239.656,425.3,239.656"/>
	<path style="fill:#4482C3;" d="M343.102,218.833l-15.784-11.838c0,0-5.438-20.754-20.418-8.166l-12.244-8.166
		c0,0-2.728-14.627-16.331-8.166c0,0-11.564-4.767-16.331-12.244c0,0-3.063-11.229-12.244-4.087c0,0-11.573,2.039-24.505-16.331
		c-12.924-18.37-55.455-30.279-44.906,12.244c0,0-14.636,25.176-65.324,20.418c0,0-22.802-3.063-32.662-16.331
		c-9.869-13.268-52.065-18.37-48.993,4.087c3.063,22.449-4.087,24.488-4.087,24.488S0.768,231.148,12.95,276.398v4.087
		c42.408,20.418,65.324,18.962,65.324,18.962c89.821-10.884,130.648,5.535,130.648,5.535c11.917,4.184,23.358,7.786,34.401,10.955
		l13.736,3.672L343.102,218.833z"/>
	<g>
		<path style="fill:#DEDEE1;" d="M224.731,208.139c-2.26,0-4.52-0.865-6.241-2.586c-3.452-3.452-3.452-9.031,0-12.482l34.154-34.154
			c3.452-3.452,9.039-3.452,12.482,0c3.452,3.443,3.452,9.031,0,12.482l-34.154,34.154
			C229.25,207.274,226.991,208.139,224.731,208.139"/>
		<path style="fill:#DEDEE1;" d="M258.369,227.471c-2.26,0-4.52-0.865-6.241-2.586c-3.452-3.443-3.452-9.031,0-12.482l33.766-33.774
			c3.452-3.452,9.039-3.452,12.482,0c3.452,3.443,3.452,9.031,0,12.482l-33.766,33.774
			C262.889,226.606,260.629,227.471,258.369,227.471"/>
	</g>
</g>
<g>
</g>
<g>
</g>
<g>
</g>
<g>
</g>
<g>
</g>
<g>
</g>
<g>
</g>
<g>
</g>
<g>
</g>
<g>
</g>
<g>
</g>
<g>
</g>
<g>
</g>
<g>
</g>
<g>
</g>
</svg>
