<?xml version="1.0" encoding="iso-8859-1"?>
<!-- Generator: Adobe Illustrator 19.0.0, SVG Export Plug-In . SVG Version: 6.00 Build 0)  -->
<svg version="1.1" id="Layer_1" xmlns="http://www.w3.org/2000/svg" xmlns:xlink="http://www.w3.org/1999/xlink" x="0px" y="0px"
	 viewBox="0 0 512.03 512.03" style="enable-background:new 0 0 512.03 512.03;" xml:space="preserve">
<g transform="translate(0 -1)">
	<path style="fill:#408DC6;" d="M30.494,208.567c-0.486,0-0.963-0.035-1.458-0.121C11.672,205.504,0,186.265,0,170.141
		c0-4.79,3.888-8.678,8.678-8.678c4.799,0,8.678,3.888,8.678,8.678c0,9.45,7.22,19.951,14.579,21.192
		c4.721,0.798,7.906,5.276,7.107,10.006C38.322,205.573,34.651,208.567,30.494,208.567"/>
	<path style="fill:#51A1E6;" d="M30.579,191.105c0,0-18.701,99.909-21.895,109.49c0,0,450.265,34.217,492.7-16.427
		c0,0,17.79-42.427-109.49-38.322l-186.134-87.587C205.761,158.259,143.557,256.902,30.579,191.105"/>
	<path style="fill:#DEDEE1;" d="M501.384,273.22h-0.165c2.135,6.179,0.165,10.952,0.165,10.952
		c-42.435,50.636-492.7,16.419-492.7,16.419v51.773c0,0,209.313,4.573,344.888,8.678c82.501,2.491,125.353-16.419,146.293-31.484
		c11.49-8.27,14.857-23.361,10.032-36.456L501.384,273.22z"/>
	<g>
		<path style="fill:#408DC6;" d="M381.469,309.745c60.286-3.298,107.208-10.839,119.548-25.574c0,0,17.79-42.427-109.49-38.322
			l-10.058,63.124V309.745z"/>
		<path style="fill:#408DC6;" d="M225.621,199.038c-1.493,0-3.011-0.382-4.391-1.198c-4.122-2.421-5.511-7.741-3.081-11.88
			l16.991-28.915c2.43-4.122,7.749-5.511,11.88-3.081c4.122,2.421,5.511,7.741,3.081,11.88L233.11,194.76
			C231.496,197.51,228.598,199.038,225.621,199.038"/>
		<path style="fill:#408DC6;" d="M260.333,216.394c-1.493,0-3.011-0.382-4.391-1.198c-4.122-2.421-5.511-7.741-3.081-11.88
			l16.991-28.915c2.43-4.122,7.732-5.511,11.88-3.081c4.122,2.421,5.51,7.741,3.081,11.88l-16.991,28.915
			C266.208,214.866,263.309,216.394,260.333,216.394"/>
		<path style="fill:#408DC6;" d="M295.045,233.75c-1.493,0-3.011-0.382-4.391-1.198c-4.122-2.421-5.51-7.741-3.081-11.88
			l16.991-28.915c2.43-4.122,7.741-5.51,11.88-3.081c4.122,2.421,5.51,7.741,3.081,11.88l-16.991,28.915
			C300.92,232.222,298.021,233.75,295.045,233.75"/>
		<path style="fill:#408DC6;" d="M329.757,251.106c-1.493,0-3.011-0.382-4.391-1.198c-4.122-2.421-5.51-7.741-3.081-11.88
			l16.991-28.915c2.43-4.122,7.741-5.511,11.88-3.081c4.122,2.421,5.51,7.741,3.081,11.88l-16.991,28.915
			C335.632,249.578,332.733,251.106,329.757,251.106"/>
	</g>
	<polygon style="fill:#F0C419;" points="208.274,213.513 219.677,232.526 242.986,236.232 226.732,254.221 231.088,277.66 
		208.274,265.58 185.459,277.66 189.816,254.221 173.562,236.232 196.871,232.526 	"/>
</g>
<g>
</g>
<g>
</g>
<g>
</g>
<g>
</g>
<g>
</g>
<g>
</g>
<g>
</g>
<g>
</g>
<g>
</g>
<g>
</g>
<g>
</g>
<g>
</g>
<g>
</g>
<g>
</g>
<g>
</g>
</svg>
